<svg width="170" height="170" viewBox="0 0 170 170" fill="none" xmlns="http://www.w3.org/2000/svg">
<g clip-path="url(#clip0_172_334)">
<path d="M85.0066 0.141846C38.1234 0.141846 0.11377 38.1478 0.11377 85.0326C0.11377 131.917 38.1234 169.923 85.0066 169.923C131.893 169.923 169.899 131.917 169.899 85.0326C169.899 38.1478 131.893 0.141846 85.0066 0.141846V0.141846ZM85.0066 165.679C40.4651 165.679 4.36209 129.573 4.36209 85.0326C4.36209 40.4931 40.4651 4.38531 85.0066 4.38531C129.548 4.38531 165.654 40.493 165.654 85.0326C165.654 129.573 129.548 165.679 85.0066 165.679V165.679Z" fill="url(#paint0_linear_172_334)"/>
<path d="M166.262 85.0326C166.262 129.905 129.879 166.286 85.0065 166.286C40.1334 166.286 3.75439 129.905 3.75439 85.0326C3.75439 40.1578 40.1334 3.77881 85.0065 3.77881C129.879 3.77881 166.262 40.1578 166.262 85.0326Z" fill="#333333"/>
<path d="M165.654 85.0326C165.654 129.573 129.548 165.679 85.0068 165.679C40.4653 165.679 4.3623 129.573 4.3623 85.0326C4.3623 40.4931 40.4653 4.38525 85.0068 4.38525C129.548 4.38525 165.654 40.4931 165.654 85.0326V85.0326Z" fill="url(#paint1_radial_172_334)"/>
<path d="M139.074 85.0325C139.074 114.892 114.867 139.098 85.0067 139.098C55.1455 139.098 30.9385 114.892 30.9385 85.0325C30.9385 55.1713 55.1455 30.9648 85.0067 30.9648C114.867 30.9648 139.074 55.1715 139.074 85.0325V85.0325Z" fill="url(#paint2_linear_172_334)"/>
<path d="M87.1721 29.5038L92.7886 14.618V29.5038H97.0542V8.18481H90.6438L84.8129 23.449H84.8683L79.0377 8.18481H72.627V29.5038H76.8927V14.618L82.5091 29.5038H87.1721Z" fill="black"/>
<path d="M145.713 39.0632L138.425 49.6898L149.872 44.0597L152.977 47.7831L134.961 56.8295L131.32 52.422L138.304 41.8923L138.263 41.8403L126.646 46.8124L122.964 42.4346L135.113 26.3484L138.218 30.0738L130.611 40.3172L142.384 35.0666L145.713 39.0632Z" fill="black"/>
<path d="M47.2494 34.9907C45.5325 33.324 42.8832 32.8216 40.3927 34.3655C40.8695 33.1323 40.6759 31.877 40.4238 31.1807C39.3495 29.2275 38.973 28.9804 38.0959 28.2395C35.2324 25.8404 32.2201 27.8889 30.0682 30.4535L19.6646 42.8523L36.0199 56.5737L46.9903 43.5018C49.4978 40.5141 49.8849 37.5521 47.2494 34.9907ZM26.0922 40.97L32.3414 33.5229C33.0666 32.661 34.7039 32.6955 35.7539 33.58C36.9109 34.5506 36.9143 35.9251 36.1373 36.8527L29.9577 44.2138L26.0922 40.97ZM43.3324 42.2083L36.8178 49.9718L32.7386 46.5433L39.3016 38.7198C40.0443 37.8353 41.6989 37.5781 42.8145 38.514C44.0715 39.5712 44.1958 41.1791 43.3324 42.2083V42.2083Z" fill="#333333"/>
<path d="M87.2174 28.6801L92.8335 13.7946V28.6801H97.0996V7.36108H90.6884L84.858 22.6247H84.9132L79.0826 7.36108H72.6714V28.6801H76.9375V13.7946L82.5542 28.6801H87.2174Z" fill="url(#paint3_radial_172_334)"/>
<path d="M145.755 37.6329L138.47 48.2598L149.917 42.6279L153.019 46.3531L135.005 55.3995L131.365 50.9904L138.349 40.4619L138.308 40.4085L126.687 45.3825L123.009 41.0026L135.158 24.9182L138.263 28.6421L130.657 38.8853L142.425 33.6368L145.755 37.6329Z" fill="url(#paint4_radial_172_334)"/>
<path d="M46.4859 34.5712C44.7725 32.9046 42.1197 32.4018 39.633 33.9443C40.106 32.7109 39.9127 31.4555 39.6608 30.7627C38.5864 28.8061 38.2134 28.5624 37.3289 27.82C34.4655 25.4194 31.4569 27.4691 29.3084 30.036L18.9009 42.4328L35.2566 56.1544L46.2268 43.0804C48.7313 40.0926 49.1214 37.1326 46.4859 34.5712V34.5712ZM25.3294 40.5502L31.5779 33.1049C32.3001 32.2415 33.9371 32.276 34.9906 33.1583C36.1478 34.1307 36.1513 35.507 35.3704 36.431L29.1947 43.7936L25.3294 40.5502ZM42.5726 41.7884L36.058 49.5518L31.9716 46.1234L38.5383 38.2982C39.2808 37.4157 40.9319 37.1582 42.0477 38.0945C43.3117 39.153 43.4362 40.7576 42.5726 41.7884V41.7884Z" fill="url(#paint5_radial_172_334)"/>
<path d="M32.7383 85.0333C32.7383 56.1655 56.1403 32.7634 85.0067 32.7634C113.876 32.7634 137.275 56.1655 137.275 85.0333C137.275 113.9 113.876 137.301 85.0067 137.301C56.1402 137.301 32.7383 113.9 32.7383 85.0333Z" fill="url(#paint6_radial_172_334)"/>
<path d="M34.2412 85.0334C34.2412 56.9961 56.9696 34.2659 85.0071 34.2659C113.044 34.2659 135.776 56.996 135.776 85.0334C135.776 113.071 113.044 135.801 85.0071 135.801C56.9698 135.801 34.2412 113.071 34.2412 85.0334V85.0334Z" fill="url(#paint7_radial_172_334)"/>
<path d="M34.1616 85.0333H85.0069V34.1882C56.9244 34.1882 34.1616 56.9512 34.1616 85.0333Z" fill="url(#paint8_radial_172_334)"/>
<path d="M85.0068 85.0332V135.879C113.089 135.879 135.852 113.112 135.852 85.0332H85.0068Z" fill="url(#paint9_radial_172_334)"/>
<path d="M136.273 84.13H85.9083V33.7651H84.1051V84.13H33.7402V85.9334H84.1051V136.3H85.9083V85.9334H136.273V84.13Z" fill="url(#paint10_radial_172_334)"/>
<path d="M85.9084 35.1914C112.73 35.6684 134.374 57.3102 134.854 84.1298H135.751C135.272 56.8127 113.227 34.7652 85.9082 34.2883V35.1914H85.9084Z" fill="url(#paint11_linear_172_334)"/>
<path d="M35.0735 84.1233C35.55 57.2671 57.2247 35.5942 84.081 35.1157V34.2141C56.7243 34.6925 34.6521 56.7695 34.1719 84.1231H35.0735V84.1233Z" fill="#C2D7E8"/>
<path d="M84.1047 134.874C57.2834 134.398 35.6398 112.754 35.163 85.9331H34.2617C34.7417 113.252 56.7861 135.3 84.1049 135.776V134.874H84.1047Z" fill="url(#paint12_linear_172_334)"/>
<path d="M134.853 85.9331C134.373 112.754 112.73 134.398 85.9082 134.874V135.776C113.227 135.3 135.275 113.252 135.751 85.9331H134.853Z" fill="#12404F"/>
<path d="M83.1416 34.2141V83.1404H34.2168V84.1058H83.1416H84.105V83.1404V34.2141H83.1416Z" fill="url(#paint13_linear_172_334)"/>
<path d="M83.0585 135.303V86.9659H34.6211V86.0127H83.0585H84.0117V86.9659V135.303H83.0585Z" fill="url(#paint14_linear_172_334)"/>
<path d="M86.9412 135.303V86.9659H135.278V86.0127H86.9412H85.9912V86.9659V135.303H86.9412Z" fill="url(#paint15_linear_172_334)"/>
<path d="M86.9412 34.6462V82.9835H135.278V83.9352H86.9412H85.9912V82.9835V34.6462H86.9412Z" fill="url(#paint16_linear_172_334)"/>
</g>
<defs>
<linearGradient id="paint0_linear_172_334" x1="-12.3133" y1="-9.01109" x2="167.811" y2="165.048" gradientUnits="userSpaceOnUse">
<stop stop-color="#DFF4FF"/>
<stop offset="0.0984" stop-color="#D6EAF5"/>
<stop offset="0.2678" stop-color="#BFD0D9"/>
<stop offset="0.4879" stop-color="#98A5AC"/>
<stop offset="0.7469" stop-color="#646B6E"/>
<stop offset="1" stop-color="#2B2B2B"/>
</linearGradient>
<radialGradient id="paint1_radial_172_334" cx="0" cy="0" r="1" gradientUnits="userSpaceOnUse" gradientTransform="translate(-0.944113 5.75631) scale(120.609 120.609)">
<stop stop-color="white"/>
<stop offset="0.3064" stop-color="#A8A8A8"/>
<stop offset="0.6461" stop-color="#4F4F4F"/>
<stop offset="0.8853" stop-color="#161616"/>
<stop offset="1"/>
</radialGradient>
<linearGradient id="paint2_linear_172_334" x1="146.989" y1="144.928" x2="32.2691" y2="34.0702" gradientUnits="userSpaceOnUse">
<stop stop-color="#DFF4FF"/>
<stop offset="0.0855" stop-color="#D6EAF5"/>
<stop offset="0.2327" stop-color="#BED0D9"/>
<stop offset="0.4239" stop-color="#96A4AC"/>
<stop offset="0.6516" stop-color="#5F686D"/>
<stop offset="0.9075" stop-color="#1A1D1E"/>
<stop offset="1"/>
</linearGradient>
<radialGradient id="paint3_radial_172_334" cx="0" cy="0" r="1" gradientUnits="userSpaceOnUse" gradientTransform="translate(-22.6054 -6.52615) scale(289.806 289.806)">
<stop stop-color="white"/>
<stop offset="0.3102" stop-color="#FDFDFD"/>
<stop offset="0.4505" stop-color="#F6F6F6"/>
<stop offset="0.5567" stop-color="#E9E9E9"/>
<stop offset="0.6456" stop-color="#D7D7D7"/>
<stop offset="0.7238" stop-color="#BFBFBF"/>
<stop offset="0.7944" stop-color="#A2A2A2"/>
<stop offset="0.8593" stop-color="#808080"/>
<stop offset="0.9199" stop-color="#575757"/>
<stop offset="0.9746" stop-color="#2B2B2B"/>
<stop offset="1" stop-color="#141414"/>
</radialGradient>
<radialGradient id="paint4_radial_172_334" cx="0" cy="0" r="1" gradientUnits="userSpaceOnUse" gradientTransform="translate(-22.6183 -6.52616) scale(289.831 289.831)">
<stop stop-color="white"/>
<stop offset="0.3102" stop-color="#FDFDFD"/>
<stop offset="0.4505" stop-color="#F6F6F6"/>
<stop offset="0.5567" stop-color="#E9E9E9"/>
<stop offset="0.6456" stop-color="#D7D7D7"/>
<stop offset="0.7238" stop-color="#BFBFBF"/>
<stop offset="0.7944" stop-color="#A2A2A2"/>
<stop offset="0.8593" stop-color="#808080"/>
<stop offset="0.9199" stop-color="#575757"/>
<stop offset="0.9746" stop-color="#2B2B2B"/>
<stop offset="1" stop-color="#141414"/>
</radialGradient>
<radialGradient id="paint5_radial_172_334" cx="0" cy="0" r="1" gradientUnits="userSpaceOnUse" gradientTransform="translate(-22.6338 -6.61111) scale(290.053)">
<stop stop-color="white"/>
<stop offset="0.3102" stop-color="#FDFDFD"/>
<stop offset="0.4505" stop-color="#F6F6F6"/>
<stop offset="0.5567" stop-color="#E9E9E9"/>
<stop offset="0.6456" stop-color="#D7D7D7"/>
<stop offset="0.7238" stop-color="#BFBFBF"/>
<stop offset="0.7944" stop-color="#A2A2A2"/>
<stop offset="0.8593" stop-color="#808080"/>
<stop offset="0.9199" stop-color="#575757"/>
<stop offset="0.9746" stop-color="#2B2B2B"/>
<stop offset="1" stop-color="#141414"/>
</radialGradient>
<radialGradient id="paint6_radial_172_334" cx="0" cy="0" r="1" gradientUnits="userSpaceOnUse" gradientTransform="translate(29.299 33.652) scale(78.1695 78.1695)">
<stop stop-color="#E6E6E6"/>
<stop offset="0.1045" stop-color="#D6D6D6"/>
<stop offset="0.3074" stop-color="#ADADAD"/>
<stop offset="0.5884" stop-color="#6C6C6C"/>
<stop offset="0.9335" stop-color="#121212"/>
<stop offset="1"/>
</radialGradient>
<radialGradient id="paint7_radial_172_334" cx="0" cy="0" r="1" gradientUnits="userSpaceOnUse" gradientTransform="translate(50.6796 44.1657) scale(113.681 113.681)">
<stop stop-color="white"/>
<stop offset="0.3435" stop-color="#FDFDFD"/>
<stop offset="0.4814" stop-color="#F6F6F6"/>
<stop offset="0.5824" stop-color="#EAEAEA"/>
<stop offset="0.6654" stop-color="#D8D8D8"/>
<stop offset="0.7373" stop-color="#C2C2C2"/>
<stop offset="0.8016" stop-color="#A6A6A6"/>
<stop offset="0.8602" stop-color="#848484"/>
<stop offset="0.9126" stop-color="#5F5F5F"/>
<stop offset="0.9494" stop-color="#404040"/>
<stop offset="0.9566" stop-color="#404040"/>
<stop offset="1"/>
</radialGradient>
<radialGradient id="paint8_radial_172_334" cx="0" cy="0" r="1" gradientUnits="userSpaceOnUse" gradientTransform="translate(17.3013 1.07301) scale(201.33 201.33)">
<stop offset="0.1685" stop-color="white"/>
<stop offset="0.1957" stop-color="#E0EFF7"/>
<stop offset="0.2406" stop-color="#B2D9EC"/>
<stop offset="0.2872" stop-color="#8BC5E2"/>
<stop offset="0.335" stop-color="#6BB5DA"/>
<stop offset="0.3844" stop-color="#52A9D4"/>
<stop offset="0.4359" stop-color="#41A0CF"/>
<stop offset="0.4911" stop-color="#369BCD"/>
<stop offset="0.5562" stop-color="#3399CC"/>
<stop offset="0.606" stop-color="#3396C8"/>
<stop offset="0.6553" stop-color="#328EBC"/>
<stop offset="0.7045" stop-color="#3180A8"/>
<stop offset="0.7536" stop-color="#2F6D8C"/>
<stop offset="0.8027" stop-color="#2D5468"/>
<stop offset="0.8512" stop-color="#2A373D"/>
<stop offset="0.8708" stop-color="#292929"/>
</radialGradient>
<radialGradient id="paint9_radial_172_334" cx="0" cy="0" r="1" gradientUnits="userSpaceOnUse" gradientTransform="translate(17.3013 1.07149) scale(201.326 201.326)">
<stop offset="0.1685" stop-color="white"/>
<stop offset="0.1957" stop-color="#E0EFF7"/>
<stop offset="0.2406" stop-color="#B2D9EC"/>
<stop offset="0.2872" stop-color="#8BC5E2"/>
<stop offset="0.335" stop-color="#6BB5DA"/>
<stop offset="0.3844" stop-color="#52A9D4"/>
<stop offset="0.4359" stop-color="#41A0CF"/>
<stop offset="0.4911" stop-color="#369BCD"/>
<stop offset="0.5562" stop-color="#3399CC"/>
<stop offset="0.606" stop-color="#3396C8"/>
<stop offset="0.6553" stop-color="#328EBC"/>
<stop offset="0.7045" stop-color="#3180A8"/>
<stop offset="0.7536" stop-color="#2F6D8C"/>
<stop offset="0.8027" stop-color="#2D5468"/>
<stop offset="0.8512" stop-color="#2A373D"/>
<stop offset="0.8708" stop-color="#292929"/>
</radialGradient>
<radialGradient id="paint10_radial_172_334" cx="0" cy="0" r="1" gradientUnits="userSpaceOnUse" gradientTransform="translate(30.3669 34.6368) scale(76.6713 76.6713)">
<stop stop-color="#E6E6E6"/>
<stop offset="0.1045" stop-color="#D6D6D6"/>
<stop offset="0.3074" stop-color="#ADADAD"/>
<stop offset="0.5884" stop-color="#6C6C6C"/>
<stop offset="0.9335" stop-color="#121212"/>
<stop offset="1"/>
</radialGradient>
<linearGradient id="paint11_linear_172_334" x1="74.9536" y1="15.4928" x2="149.723" y2="87.7448" gradientUnits="userSpaceOnUse">
<stop stop-color="#F0F4FF"/>
<stop offset="0.1086" stop-color="#EBEFF9"/>
<stop offset="0.2475" stop-color="#DCE0EA"/>
<stop offset="0.4028" stop-color="#C4C7CF"/>
<stop offset="0.5701" stop-color="#A2A4AB"/>
<stop offset="0.7469" stop-color="#76777C"/>
<stop offset="0.9291" stop-color="#414243"/>
<stop offset="1" stop-color="#2B2B2B"/>
</linearGradient>
<linearGradient id="paint12_linear_172_334" x1="14.2643" y1="76.4944" x2="89.0352" y2="148.748" gradientUnits="userSpaceOnUse">
<stop stop-color="#F0F4FF"/>
<stop offset="0.1086" stop-color="#EBEFF9"/>
<stop offset="0.2475" stop-color="#DCE0EA"/>
<stop offset="0.4028" stop-color="#C4C7CF"/>
<stop offset="0.5701" stop-color="#A2A4AB"/>
<stop offset="0.7469" stop-color="#76777C"/>
<stop offset="0.9291" stop-color="#414243"/>
<stop offset="1" stop-color="#2B2B2B"/>
</linearGradient>
<linearGradient id="paint13_linear_172_334" x1="50.4371" y1="50.73" x2="89.2087" y2="88.1961" gradientUnits="userSpaceOnUse">
<stop stop-color="#C2D7E8"/>
<stop offset="0.1337" stop-color="#BACFE1"/>
<stop offset="0.3425" stop-color="#A4BACD"/>
<stop offset="0.6001" stop-color="#8098AC"/>
<stop offset="0.894" stop-color="#4E697F"/>
<stop offset="1" stop-color="#3A566D"/>
</linearGradient>
<linearGradient id="paint14_linear_172_334" x1="31.0193" y1="59.9105" x2="105.038" y2="131.437" gradientUnits="userSpaceOnUse">
<stop stop-color="#F0F4FF"/>
<stop offset="0.0973" stop-color="#E8EBF6"/>
<stop offset="0.2568" stop-color="#D1D4DD"/>
<stop offset="0.4587" stop-color="#ABAEB5"/>
<stop offset="0.6951" stop-color="#78797D"/>
<stop offset="0.9578" stop-color="#363637"/>
<stop offset="1" stop-color="#2B2B2B"/>
</linearGradient>
<linearGradient id="paint15_linear_172_334" x1="85.5758" y1="86.4427" x2="111.539" y2="111.532" gradientUnits="userSpaceOnUse">
<stop stop-color="#D9DEF0"/>
<stop offset="0.1229" stop-color="#D4DAEC"/>
<stop offset="0.2629" stop-color="#C7CFE2"/>
<stop offset="0.4114" stop-color="#B0BCD1"/>
<stop offset="0.5657" stop-color="#90A1B8"/>
<stop offset="0.7246" stop-color="#677F99"/>
<stop offset="0.8849" stop-color="#355674"/>
<stop offset="0.9719" stop-color="#173D5D"/>
</linearGradient>
<linearGradient id="paint16_linear_172_334" x1="59.0158" y1="32.7645" x2="132.954" y2="104.213" gradientUnits="userSpaceOnUse">
<stop stop-color="#F0F4FF"/>
<stop offset="0.1086" stop-color="#EBEFF9"/>
<stop offset="0.2475" stop-color="#DCE0EA"/>
<stop offset="0.4028" stop-color="#C4C7CF"/>
<stop offset="0.5701" stop-color="#A2A4AB"/>
<stop offset="0.7469" stop-color="#76777C"/>
<stop offset="0.9291" stop-color="#414243"/>
<stop offset="1" stop-color="#2B2B2B"/>
</linearGradient>
<clipPath id="clip0_172_334">
<rect width="170" height="170" fill="white"/>
</clipPath>
</defs>
</svg>
