<svg width="221" height="220" viewBox="0 0 221 220" fill="none" xmlns="http://www.w3.org/2000/svg">
<path d="M110.485 220L141.394 46.1628C170.857 46.1628 180.15 49.3935 181.492 62.5803C181.492 62.5803 201.256 55.211 211.224 40.2442C172.325 22.2191 133.24 21.4062 133.24 21.4062L110.434 49.1844L110.485 49.1809L87.6783 21.4019C87.6783 21.4019 48.5927 22.2156 9.69873 40.2407C19.6583 55.2075 39.4303 62.5768 39.4303 62.5768C40.7799 49.3891 50.0617 46.1584 79.3262 46.1375L110.485 220Z" fill="#E82127"/>
<path d="M110.471 13.3829C141.916 13.1424 177.908 18.2472 214.752 34.3058C219.677 25.4423 220.943 21.525 220.943 21.525C180.666 5.59014 142.947 0.136791 110.467 0C77.9883 0.136791 40.2714 5.59101 0 21.525C0 21.525 1.79658 26.3501 6.18609 34.3058C43.0238 18.2472 79.0216 13.1424 110.467 13.3829H110.471Z" fill="#E82127"/>
</svg>
